<svg aria-hidden="true" style="position: absolute; width: 0; height: 0; overflow: hidden;" version="1.1" xmlns="http://www.w3.org/2000/svg" xmlns:xlink="http://www.w3.org/1999/xlink">
<defs>
<symbol id="icon-calendar" viewBox="0 0 32 32">
<path fill="#082859" style="fill: var(--color1, #082859)" d="M25.050 2.78h-1.293v-1.293c0-0.343-0.136-0.672-0.379-0.914s-0.571-0.379-0.914-0.379c-0.343 0-0.672 0.136-0.914 0.379s-0.379 0.571-0.379 0.914v1.293h-10.343v-1.293c0-0.343-0.136-0.672-0.379-0.914s-0.571-0.379-0.914-0.379-0.672 0.136-0.914 0.379c-0.242 0.242-0.379 0.571-0.379 0.914v1.293h-1.293c-1.714 0.002-3.357 0.684-4.569 1.896s-1.894 2.855-1.896 4.569v15.515c0.002 1.714 0.684 3.357 1.896 4.569s2.855 1.894 4.569 1.896h18.101c1.714-0.002 3.357-0.684 4.569-1.896s1.894-2.855 1.896-4.569v-15.515c-0.002-1.714-0.684-3.357-1.896-4.569s-2.855-1.894-4.569-1.896zM3.071 9.244c0-1.029 0.409-2.015 1.136-2.743s1.714-1.136 2.743-1.136h18.101c1.029 0 2.015 0.409 2.743 1.136s1.136 1.714 1.136 2.743v1.293h-25.859v-1.293zM25.050 28.638h-18.101c-1.029 0-2.015-0.409-2.743-1.136s-1.136-1.714-1.136-2.743v-11.636h25.859v11.636c0 1.029-0.409 2.015-1.136 2.743s-1.714 1.136-2.743 1.136z"></path>
<path fill="#082859" style="fill: var(--color1, #082859)" d="M16 21.527c1.071 0 1.939-0.868 1.939-1.939s-0.868-1.939-1.939-1.939c-1.071 0-1.939 0.868-1.939 1.939s0.868 1.939 1.939 1.939z"></path>
<path fill="#082859" style="fill: var(--color1, #082859)" d="M9.535 21.527c1.071 0 1.939-0.868 1.939-1.939s-0.868-1.939-1.939-1.939c-1.071 0-1.939 0.868-1.939 1.939s0.868 1.939 1.939 1.939z"></path>
<path fill="#082859" style="fill: var(--color1, #082859)" d="M22.465 21.527c1.071 0 1.939-0.868 1.939-1.939s-0.868-1.939-1.939-1.939c-1.071 0-1.939 0.868-1.939 1.939s0.868 1.939 1.939 1.939z"></path>
</symbol>
<symbol id="icon-calendar_hov" viewBox="0 0 32 32">
<path fill="#fafafa" style="fill: var(--color2, #fafafa)" d="M0 25.333c0.002 1.767 0.705 3.462 1.955 4.712s2.944 1.953 4.712 1.955h18.667c1.767-0.002 3.462-0.705 4.712-1.955s1.953-2.944 1.955-4.712v-12h-32v12zM22.667 19.333c0.396 0 0.782 0.117 1.111 0.337s0.585 0.532 0.737 0.898 0.191 0.768 0.114 1.155c-0.077 0.388-0.268 0.744-0.547 1.024s-0.636 0.47-1.024 0.547c-0.388 0.077-0.79 0.037-1.155-0.114s-0.678-0.408-0.898-0.737c-0.22-0.329-0.337-0.716-0.337-1.111 0-0.53 0.211-1.039 0.586-1.414s0.884-0.586 1.414-0.586zM16 19.333c0.396 0 0.782 0.117 1.111 0.337s0.585 0.532 0.737 0.898c0.151 0.365 0.191 0.768 0.114 1.155s-0.268 0.744-0.547 1.024c-0.28 0.28-0.636 0.47-1.024 0.547s-0.79 0.037-1.155-0.114-0.678-0.408-0.898-0.737c-0.22-0.329-0.337-0.716-0.337-1.111 0-0.53 0.211-1.039 0.586-1.414s0.884-0.586 1.414-0.586zM9.333 19.333c0.396 0 0.782 0.117 1.111 0.337s0.585 0.532 0.737 0.898c0.151 0.365 0.191 0.768 0.114 1.155s-0.268 0.744-0.547 1.024c-0.28 0.28-0.636 0.47-1.024 0.547s-0.79 0.037-1.156-0.114c-0.365-0.151-0.678-0.408-0.898-0.737s-0.337-0.716-0.337-1.111c0-0.53 0.211-1.039 0.586-1.414s0.884-0.586 1.414-0.586z"></path>
<path fill="#fafafa" style="fill: var(--color2, #fafafa)" d="M25.333 2.667h-1.333v-1.333c0-0.354-0.141-0.693-0.391-0.943s-0.589-0.391-0.943-0.391c-0.354 0-0.693 0.14-0.943 0.391s-0.391 0.589-0.391 0.943v1.333h-10.667v-1.333c0-0.354-0.14-0.693-0.391-0.943s-0.589-0.391-0.943-0.391c-0.354 0-0.693 0.14-0.943 0.391s-0.391 0.589-0.391 0.943v1.333h-1.333c-1.767 0.002-3.462 0.705-4.712 1.955s-1.953 2.944-1.955 4.712v1.333h32v-1.333c-0.002-1.767-0.705-3.462-1.955-4.712s-2.944-1.953-4.712-1.955z"></path>
</symbol>
<symbol id="icon-card" viewBox="0 0 32 32">
<path fill="#082859" style="fill: var(--color1, #082859)" d="M7.596 22.174c1.071 0 1.939-0.868 1.939-1.939s-0.868-1.939-1.939-1.939c-1.071 0-1.939 0.868-1.939 1.939s0.868 1.939 1.939 1.939z"></path>
<path fill="#082859" style="fill: var(--color1, #082859)" d="M25.050 4.073h-18.101c-1.714 0.002-3.357 0.684-4.569 1.896s-1.894 2.855-1.896 4.569v10.343c0.002 1.714 0.684 3.357 1.896 4.569s2.855 1.894 4.569 1.896h18.101c1.714-0.002 3.357-0.684 4.569-1.896s1.894-2.855 1.896-4.569v-10.343c-0.002-1.714-0.684-3.357-1.896-4.569s-2.855-1.894-4.569-1.896zM6.949 6.659h18.101c1.029 0 2.015 0.409 2.743 1.136s1.136 1.714 1.136 2.743h-25.859c0-1.029 0.409-2.015 1.136-2.743s1.714-1.136 2.743-1.136zM25.050 24.76h-18.101c-1.029 0-2.015-0.409-2.743-1.136s-1.136-1.714-1.136-2.743v-7.758h25.859v7.758c0 1.029-0.409 2.015-1.136 2.743s-1.714 1.136-2.743 1.136z"></path>
</symbol>
<symbol id="icon-card_hov" viewBox="0 0 32 32">
<path fill="#fafafa" style="fill: var(--color2, #fafafa)" d="M25.333 4h-18.667c-1.767 0.002-3.462 0.705-4.712 1.955s-1.953 2.944-1.955 4.712h32c-0.002-1.767-0.705-3.462-1.955-4.712s-2.944-1.953-4.712-1.955v0z"></path>
<path fill="#fafafa" style="fill: var(--color2, #fafafa)" d="M0 21.333c0.002 1.767 0.705 3.462 1.955 4.712s2.944 1.953 4.712 1.955h18.667c1.767-0.002 3.462-0.705 4.712-1.955s1.953-2.944 1.955-4.712v-8h-32v8zM9.333 20.667c0 0.396-0.117 0.782-0.337 1.111s-0.532 0.585-0.898 0.737-0.768 0.191-1.156 0.114c-0.388-0.077-0.744-0.268-1.024-0.547s-0.47-0.636-0.547-1.024c-0.077-0.388-0.038-0.79 0.114-1.155s0.408-0.678 0.737-0.898c0.329-0.22 0.716-0.337 1.111-0.337 0.53 0 1.039 0.211 1.414 0.586s0.586 0.884 0.586 1.414z"></path>
</symbol>
<symbol id="icon-case" viewBox="0 0 32 32">
<path fill="#082859" style="fill: var(--color1, #082859)" d="M25.050 5.366h-1.422c-0.3-1.459-1.094-2.77-2.248-3.712s-2.598-1.457-4.087-1.459h-2.586c-1.49 0.002-2.933 0.517-4.087 1.459s-1.948 2.253-2.248 3.712h-1.422c-1.714 0.002-3.357 0.684-4.569 1.896s-1.894 2.855-1.896 4.569v12.929c0.002 1.714 0.684 3.357 1.896 4.569s2.855 1.894 4.569 1.896h18.101c1.714-0.002 3.357-0.684 4.569-1.896s1.894-2.855 1.896-4.569v-12.929c-0.002-1.714-0.684-3.357-1.896-4.569s-2.855-1.894-4.569-1.896zM14.707 2.78h2.586c0.799 0.003 1.578 0.254 2.23 0.716s1.145 1.116 1.411 1.869h-9.868c0.266-0.754 0.759-1.407 1.411-1.869s1.431-0.713 2.23-0.716zM6.949 7.952h18.101c1.029 0 2.015 0.409 2.743 1.136s1.136 1.714 1.136 2.743v3.879h-25.859v-3.879c0-1.029 0.409-2.015 1.136-2.743s1.714-1.136 2.743-1.136zM25.050 28.638h-18.101c-1.029 0-2.015-0.409-2.743-1.136s-1.136-1.714-1.136-2.743v-6.465h11.636v1.293c0 0.343 0.136 0.672 0.379 0.914s0.571 0.379 0.914 0.379 0.672-0.136 0.914-0.379c0.243-0.242 0.379-0.571 0.379-0.914v-1.293h11.636v6.465c0 1.029-0.409 2.015-1.136 2.743s-1.714 1.136-2.743 1.136z"></path>
</symbol>
<symbol id="icon-case_hov" viewBox="0 0 32 32">
<path fill="#fafafa" style="fill: var(--color2, #fafafa)" d="M25.333 5.333h-1.467c-0.309-1.505-1.128-2.857-2.318-3.828s-2.679-1.503-4.215-1.505h-2.667c-1.536 0.002-3.025 0.533-4.215 1.505s-2.009 2.324-2.318 3.828h-1.467c-1.767 0.002-3.462 0.705-4.712 1.955s-1.953 2.944-1.955 4.712v4h32v-4c-0.002-1.767-0.705-3.462-1.955-4.712s-2.944-1.953-4.712-1.955zM10.912 5.333c0.275-0.777 0.783-1.451 1.455-1.928s1.475-0.735 2.3-0.739h2.667c0.824 0.003 1.627 0.261 2.3 0.739s1.18 1.151 1.455 1.928h-10.176z"></path>
<path fill="#fafafa" style="fill: var(--color2, #fafafa)" d="M17.333 20c0 0.354-0.141 0.693-0.391 0.943s-0.589 0.391-0.943 0.391c-0.354 0-0.693-0.141-0.943-0.391s-0.391-0.589-0.391-0.943v-1.333h-14.667v6.667c0.002 1.767 0.705 3.462 1.955 4.712s2.944 1.953 4.712 1.955h18.667c1.767-0.002 3.462-0.705 4.712-1.955s1.953-2.944 1.955-4.712v-6.667h-14.667v1.333z"></path>
</symbol>
<symbol id="icon-clock" viewBox="0 0 32 32">
<path fill="#082859" style="fill: var(--color1, #082859)" d="M31.515 15.709c0 4.115-1.635 8.061-4.544 10.971s-6.856 4.544-10.971 4.544c-4.115 0-8.061-1.635-10.971-4.544s-4.544-6.856-4.544-10.971c0-0.343 0.136-0.672 0.379-0.914s0.571-0.379 0.914-0.379 0.672 0.136 0.914 0.379c0.242 0.243 0.379 0.571 0.379 0.914 0 2.557 0.758 5.057 2.179 7.183s3.44 3.783 5.803 4.762c2.362 0.979 4.962 1.235 7.47 0.736s4.812-1.73 6.62-3.539 3.040-4.112 3.538-6.62c0.499-2.508 0.243-5.108-0.736-7.47s-2.636-4.382-4.762-5.803-4.626-2.179-7.183-2.179c-0.343 0-0.672-0.136-0.914-0.379s-0.379-0.571-0.379-0.914 0.136-0.672 0.379-0.914c0.242-0.242 0.571-0.379 0.914-0.379 4.114 0.004 8.057 1.641 10.966 4.549s4.545 6.853 4.549 10.966zM13.772 14.416h-2.944c-0.343 0-0.672 0.136-0.914 0.379s-0.379 0.571-0.379 0.914 0.136 0.672 0.379 0.914c0.242 0.243 0.571 0.379 0.914 0.379h2.944c0.197 0.343 0.471 0.636 0.8 0.856s0.704 0.362 1.096 0.413c0.392 0.052 0.791 0.013 1.166-0.114s0.715-0.339 0.995-0.618c0.28-0.28 0.491-0.62 0.618-0.995s0.166-0.774 0.114-1.166c-0.052-0.392-0.193-0.767-0.413-1.096s-0.513-0.603-0.856-0.8v-4.237c0-0.343-0.136-0.672-0.379-0.914s-0.571-0.379-0.914-0.379-0.672 0.136-0.914 0.379c-0.243 0.242-0.379 0.571-0.379 0.914v4.237c-0.387 0.225-0.71 0.547-0.935 0.935zM2.847 11.551c0.256 0 0.506-0.076 0.718-0.218s0.378-0.344 0.476-0.58c0.098-0.236 0.123-0.496 0.074-0.747s-0.173-0.481-0.354-0.662-0.411-0.304-0.662-0.354c-0.251-0.050-0.511-0.024-0.747 0.074s-0.438 0.264-0.58 0.476c-0.142 0.213-0.218 0.463-0.218 0.718 0 0.343 0.136 0.672 0.379 0.914s0.571 0.379 0.914 0.379zM5.942 6.926c0.256 0 0.506-0.076 0.718-0.218s0.378-0.344 0.476-0.58c0.098-0.236 0.123-0.496 0.074-0.747s-0.173-0.481-0.354-0.662c-0.181-0.181-0.411-0.304-0.662-0.354s-0.511-0.024-0.747 0.074c-0.236 0.098-0.438 0.264-0.58 0.476s-0.218 0.463-0.218 0.718c0 0.343 0.136 0.672 0.379 0.914s0.571 0.379 0.914 0.379zM10.543 3.867c0.256 0 0.506-0.076 0.718-0.218s0.378-0.344 0.476-0.58c0.098-0.236 0.124-0.496 0.074-0.747s-0.173-0.481-0.354-0.662-0.411-0.304-0.662-0.354c-0.251-0.050-0.511-0.024-0.747 0.074s-0.438 0.264-0.58 0.476c-0.142 0.213-0.218 0.463-0.218 0.718 0 0.343 0.136 0.672 0.379 0.914s0.571 0.379 0.914 0.379z"></path>
</symbol>
<symbol id="icon-clock_hov" viewBox="0 0 32 32">
<path fill="#fafafa" style="fill: var(--color2, #fafafa)" d="M18.908 0.277c-0.192-0.035-0.39-0.028-0.579 0.021s-0.365 0.14-0.515 0.265-0.271 0.282-0.354 0.459c-0.083 0.177-0.126 0.37-0.126 0.566v3.839c-1.614-0.214-3.256-0.054-4.799 0.469s-2.944 1.394-4.095 2.545-2.022 2.553-2.545 4.095c-0.523 1.542-0.683 3.184-0.469 4.799h-3.839c-0.196 0-0.389 0.043-0.566 0.126s-0.334 0.204-0.459 0.354c-0.125 0.15-0.216 0.326-0.265 0.515s-0.057 0.387-0.021 0.579c0.528 2.869 1.83 5.538 3.766 7.721s4.431 3.794 7.216 4.66c2.785 0.867 5.754 0.955 8.586 0.257s5.419-2.158 7.482-4.221 3.522-4.65 4.221-7.482c0.699-2.832 0.61-5.801-0.257-8.586s-2.478-5.28-4.66-7.216-4.852-3.238-7.721-3.766zM16 18.667c-0.466-0.001-0.924-0.125-1.327-0.359s-0.738-0.57-0.97-0.974h-3.036c-0.354 0-0.693-0.141-0.943-0.391s-0.391-0.589-0.391-0.943c0-0.354 0.14-0.693 0.391-0.943s0.589-0.391 0.943-0.391h3.036c0.232-0.399 0.565-0.732 0.964-0.964v-4.369c0-0.354 0.141-0.693 0.391-0.943s0.589-0.391 0.943-0.391c0.354 0 0.693 0.14 0.943 0.391s0.39 0.589 0.39 0.943v4.369c0.509 0.292 0.906 0.744 1.131 1.286s0.264 1.143 0.112 1.709c-0.152 0.566-0.487 1.067-0.953 1.423s-1.037 0.548-1.623 0.546zM13.296 0.134c0.264 0 0.522 0.078 0.741 0.225s0.39 0.355 0.491 0.598 0.127 0.512 0.076 0.77c-0.051 0.259-0.178 0.496-0.365 0.683s-0.424 0.313-0.683 0.365c-0.259 0.051-0.527 0.025-0.77-0.076s-0.452-0.272-0.598-0.491c-0.146-0.219-0.225-0.477-0.225-0.741 0-0.354 0.14-0.693 0.391-0.943s0.589-0.391 0.943-0.391zM7.829 2.475c0.264 0 0.521 0.078 0.741 0.225s0.39 0.355 0.491 0.598c0.101 0.244 0.127 0.512 0.076 0.77s-0.178 0.496-0.365 0.683c-0.186 0.186-0.424 0.313-0.683 0.365s-0.527 0.025-0.77-0.076c-0.244-0.101-0.452-0.272-0.598-0.491s-0.225-0.477-0.225-0.741c-0.001-0.353 0.139-0.693 0.388-0.943s0.588-0.392 0.941-0.393l0.004 0.003zM3.705 6.455c0.264 0 0.522 0.078 0.741 0.225s0.39 0.355 0.491 0.598c0.101 0.244 0.127 0.512 0.076 0.77s-0.178 0.496-0.365 0.683c-0.186 0.186-0.424 0.313-0.683 0.365s-0.527 0.025-0.77-0.076c-0.244-0.101-0.452-0.272-0.598-0.491s-0.225-0.477-0.225-0.741c0-0.354 0.14-0.693 0.391-0.943s0.589-0.391 0.943-0.391zM1.572 12.011c0.264 0 0.522 0.078 0.741 0.225s0.39 0.355 0.491 0.598c0.101 0.244 0.127 0.512 0.076 0.77s-0.178 0.496-0.365 0.683c-0.186 0.186-0.424 0.313-0.683 0.365s-0.527 0.025-0.77-0.076c-0.244-0.101-0.452-0.272-0.598-0.491s-0.225-0.477-0.225-0.741c0-0.353 0.14-0.692 0.39-0.942s0.588-0.391 0.941-0.391h0.003z"></path>
</symbol>
<symbol id="icon-google" viewBox="0 0 32 32">
<path fill="#082859" style="fill: var(--color1, #082859)" d="M31.208 13.534l-0.161-0.685h-14.889v6.301h8.896c-0.924 4.386-5.209 6.694-8.71 6.694-2.547 0-5.232-1.071-7.009-2.794-0.938-0.923-1.684-2.022-2.196-3.234s-0.781-2.513-0.789-3.829c0-2.654 1.193-5.309 2.929-7.056s4.357-2.724 6.964-2.724c2.985 0 5.124 1.585 5.924 2.308l4.478-4.454c-1.314-1.154-4.922-4.063-10.546-4.063-4.339 0-8.5 1.662-11.541 4.694-3.001 2.985-4.555 7.301-4.555 11.306s1.47 8.106 4.379 11.114c3.108 3.209 7.509 4.886 12.041 4.886 4.124 0 8.032-1.616 10.818-4.547 2.739-2.886 4.155-6.879 4.155-11.064 0-1.762-0.177-2.809-0.185-2.854z"></path>
</symbol>
<symbol id="icon-google_hov" viewBox="0 0 32 32">
<path fill="#4285f4" style="fill: var(--color3, #4285f4)" d="M16 13.091v6.196h8.611c-0.378 1.993-1.513 3.68-3.215 4.815l5.193 4.029c3.025-2.793 4.771-6.895 4.771-11.767 0-1.135-0.102-2.226-0.291-3.273l-15.069-0z"></path>
<path fill="#34a853" style="fill: var(--color4, #34a853)" d="M7.033 19.045l-1.171 0.896-4.146 3.229c2.633 5.222 8.029 8.829 14.283 8.829 4.32 0 7.942-1.425 10.589-3.869l-5.193-4.029c-1.425 0.96-3.244 1.542-5.396 1.542-4.16 0-7.694-2.807-8.96-6.589l-0.007-0.009z"></path>
<path fill="#fbbc05" style="fill: var(--color5, #fbbc05)" d="M1.716 8.829c-1.091 2.153-1.716 4.582-1.716 7.171s0.625 5.018 1.716 7.171c0 0.014 5.324-4.131 5.324-4.131-0.32-0.96-0.509-1.978-0.509-3.040s0.189-2.080 0.509-3.040l-5.324-4.131z"></path>
<path fill="#ea4335" style="fill: var(--color6, #ea4335)" d="M16 6.371c2.356 0 4.451 0.814 6.124 2.385l4.582-4.582c-2.778-2.589-6.385-4.175-10.705-4.175-6.255 0-11.651 3.593-14.284 8.829l5.324 4.131c1.265-3.782 4.8-6.589 8.96-6.589z"></path>
</symbol>
<symbol id="icon-grow" viewBox="0 0 32 32">
<path fill="#082859" style="fill: var(--color1, #082859)" d="M29.576 5.335h-3.99c-0.256 0-0.506 0.076-0.718 0.218s-0.378 0.344-0.476 0.58-0.123 0.496-0.074 0.747c0.050 0.251 0.173 0.481 0.354 0.662l1.404 1.404-4.636 4.635c-0.246 0.235-0.574 0.367-0.915 0.367s-0.668-0.131-0.915-0.367l-0.22-0.221c-0.739-0.706-1.721-1.1-2.743-1.1s-2.004 0.394-2.743 1.1l-6.594 6.594c-0.243 0.244-0.379 0.574-0.379 0.918s0.138 0.674 0.381 0.917 0.574 0.379 0.918 0.379c0.344-0 0.674-0.138 0.917-0.381l6.594-6.594c0.246-0.236 0.574-0.367 0.915-0.367s0.669 0.132 0.915 0.367l0.22 0.221c0.739 0.705 1.721 1.099 2.743 1.099s2.004-0.393 2.743-1.099l4.637-4.636 1.404 1.404c0.181 0.178 0.411 0.298 0.661 0.346s0.508 0.022 0.742-0.076c0.234-0.098 0.435-0.262 0.576-0.473s0.218-0.459 0.219-0.713v-3.99c0-0.514-0.204-1.008-0.568-1.371s-0.857-0.568-1.371-0.568z"></path>
<path fill="#082859" style="fill: var(--color1, #082859)" d="M30.222 28.607h-23.273c-1.029 0-2.015-0.409-2.743-1.136s-1.136-1.714-1.136-2.743v-23.242c0-0.343-0.136-0.672-0.379-0.914s-0.571-0.379-0.914-0.379c-0.343 0-0.672 0.136-0.914 0.379s-0.379 0.571-0.379 0.914v23.242c0.002 1.714 0.684 3.357 1.896 4.569s2.855 1.894 4.569 1.896h23.273c0.343 0 0.672-0.136 0.914-0.379s0.379-0.571 0.379-0.914-0.136-0.672-0.379-0.914c-0.243-0.243-0.571-0.379-0.914-0.379z"></path>
</symbol>
<symbol id="icon-grow_hov" viewBox="0 0 32 32">
<path fill="#fafafa" style="fill: var(--color2, #fafafa)" d="M30 5.301h-4.115c-0.264 0-0.521 0.078-0.741 0.225s-0.39 0.355-0.491 0.598c-0.101 0.244-0.127 0.512-0.076 0.77s0.178 0.496 0.365 0.683l1.448 1.448-4.781 4.78c-0.254 0.243-0.592 0.378-0.943 0.378s-0.689-0.135-0.943-0.378l-0.227-0.228c-0.762-0.728-1.775-1.134-2.829-1.134s-2.067 0.406-2.829 1.134l-6.8 6.8c-0.251 0.251-0.391 0.592-0.391 0.947s0.142 0.695 0.393 0.945c0.251 0.251 0.592 0.391 0.947 0.391s0.695-0.142 0.945-0.393l6.8-6.8c0.254-0.243 0.592-0.379 0.943-0.379s0.689 0.136 0.943 0.379l0.227 0.228c0.762 0.727 1.775 1.133 2.829 1.133s2.067-0.406 2.829-1.133l4.781-4.781 1.448 1.448c0.187 0.183 0.424 0.308 0.681 0.357s0.523 0.022 0.765-0.079c0.242-0.101 0.449-0.271 0.594-0.488s0.224-0.473 0.226-0.735v-4.115c0-0.53-0.211-1.039-0.586-1.414s-0.884-0.586-1.414-0.586z"></path>
<path fill="#fafafa" style="fill: var(--color2, #fafafa)" d="M30.667 29.301h-24c-1.061 0-2.078-0.421-2.828-1.172s-1.172-1.768-1.172-2.828v-23.968c0-0.354-0.14-0.693-0.391-0.943s-0.589-0.391-0.943-0.391c-0.354 0-0.693 0.14-0.943 0.391s-0.391 0.589-0.391 0.943v23.968c0.002 1.767 0.705 3.462 1.955 4.712s2.944 1.953 4.712 1.955h24c0.354 0 0.693-0.141 0.943-0.391s0.391-0.589 0.391-0.943c0-0.354-0.141-0.693-0.391-0.943s-0.589-0.391-0.943-0.391z"></path>
</symbol>
<symbol id="icon-header_logo" viewBox="0 0 38 32">
<path fill="#fff" style="fill: var(--color1, #fff)" opacity="0.2" d="M34.509 16c0 8.561-7.023 15.502-15.686 15.502s-15.686-6.94-15.686-15.502c0-8.561 7.023-15.502 15.686-15.502s15.686 6.94 15.686 15.502z"></path>
<path fill="#fff" style="fill: var(--color1, #fff)" d="M29.556 22.614c-0.356 0.069-7.263 1.305-10.733-3.187-2.759 3.541-7.648 3.652-10.679 3.2-8.816-2.424-8.137-11.641-8.13-11.73 0.010-0.137 0.060-0.267 0.145-0.373s0.198-0.185 0.326-0.224c0.128-0.040 0.264-0.040 0.392-0.001s0.242 0.116 0.327 0.221c0.020 0.027 2.212 2.74 5.044 2.843 1.574 0.068 3.11-0.74 4.492-2.259 1.674-1.359 5.573-2.393 8.083 0.851 0.855-1.112 2.080-1.865 3.443-2.115 1.647-0.187 3.303 0.264 4.64 1.264 1.382 1.519 2.918 2.328 4.492 2.259 2.831-0.103 5.023-2.816 5.043-2.843 0.086-0.103 0.2-0.179 0.327-0.217s0.263-0.037 0.39 0.004c0.127 0.040 0.239 0.118 0.323 0.223s0.136 0.233 0.149 0.368c0.007 0.089 0.686 9.306-8.076 11.716z"></path>
</symbol>
<symbol id="icon-local" viewBox="0 0 32 32">
<path  d="M16 0.64c-3.038 0-6.008 0.901-8.534 2.589s-4.495 4.087-5.657 6.893c-1.163 2.807-1.467 5.895-0.874 8.875s2.056 5.716 4.204 7.865c2.148 2.148 4.885 3.611 7.865 4.204s6.068 0.288 8.875-0.874c2.807-1.163 5.206-3.131 6.893-5.657s2.589-5.496 2.589-8.534c-0.004-4.072-1.624-7.977-4.504-10.856s-6.784-4.499-10.856-4.504v0zM27.068 9.6h-4.123c-0.923-2.139-2.138-4.139-3.611-5.944 3.26 0.887 6.038 3.023 7.734 5.944zM21.76 16c-0.011 1.303-0.216 2.598-0.609 3.84h-10.301c-0.393-1.242-0.599-2.537-0.609-3.84 0.011-1.303 0.216-2.598 0.609-3.84h10.301c0.393 1.242 0.599 2.537 0.609 3.84zM11.876 22.4h8.248c-1.086 2.145-2.475 4.123-4.124 5.873-1.649-1.75-3.038-3.727-4.124-5.873zM11.876 9.6c1.086-2.145 2.475-4.123 4.124-5.873 1.649 1.749 3.038 3.727 4.124 5.873h-8.248zM12.672 3.656c-1.475 1.805-2.692 3.805-3.617 5.944h-4.123c1.697-2.923 4.478-5.059 7.74-5.944zM3.79 12.16h4.402c-0.332 1.253-0.504 2.543-0.512 3.84 0.008 1.297 0.18 2.587 0.512 3.84h-4.402c-0.787-2.5-0.787-5.18 0-7.68zM4.932 22.4h4.123c0.925 2.139 2.142 4.14 3.617 5.944-3.262-0.886-6.043-3.021-7.74-5.944zM19.334 28.344c1.473-1.805 2.688-3.805 3.611-5.944h4.123c-1.696 2.922-4.474 5.057-7.734 5.944zM28.21 19.84h-4.402c0.332-1.253 0.504-2.543 0.512-3.84-0.008-1.296-0.18-2.587-0.512-3.84h4.399c0.787 2.5 0.787 5.18 0 7.68h0.003z"></path>
</symbol>
<symbol id="icon-resume" viewBox="0 0 32 32">
<path fill="#082859" style="fill: var(--color1, #082859)" d="M10.347 8.868l3.708-3.709 0.028 18.175c0 1.105 0.895 2 2 2s2-0.895 2-2l-0.028-18.152 3.686 3.687c0.767 0.794 2.033 0.816 2.828 0.049s0.816-2.033 0.049-2.828c-0.016-0.017-0.032-0.033-0.049-0.049l-4.283-4.282c-2.343-2.343-6.142-2.343-8.485-0l-4.283 4.283c-0.767 0.794-0.745 2.061 0.049 2.828 0.775 0.749 2.004 0.749 2.779 0z"></path>
<path fill="#082859" style="fill: var(--color1, #082859)" d="M29.999 19.334c-1.104 0-2 0.895-2 2v6.121c-0.001 0.301-0.244 0.545-0.545 0.545h-22.908c-0.301-0.001-0.545-0.244-0.545-0.545v-6.121c0-1.104-0.895-2-2-2s-2 0.895-2 2v6.121c0.003 2.509 2.036 4.542 4.545 4.545h22.908c2.509-0.003 4.542-2.036 4.545-4.545v-6.121c0-1.104-0.895-2-2-2z"></path>
</symbol>
<symbol id="icon-tg" viewBox="0 0 32 32">
<path fill="#082859" style="fill: var(--color1, #082859)" d="M32 16c0 8.837-7.163 16-16 16s-16-7.163-16-16c0-8.837 7.163-16 16-16s16 7.163 16 16zM16.573 11.812c-1.556 0.647-4.666 1.987-9.331 4.019-0.757 0.301-1.154 0.596-1.19 0.884-0.061 0.487 0.549 0.679 1.379 0.94 0.113 0.035 0.23 0.072 0.35 0.111 0.817 0.266 1.916 0.576 2.487 0.589 0.518 0.011 1.097-0.202 1.735-0.641 4.358-2.942 6.608-4.429 6.749-4.461 0.1-0.023 0.238-0.051 0.331 0.032s0.084 0.241 0.074 0.283c-0.060 0.258-2.454 2.483-3.693 3.634-0.386 0.359-0.66 0.614-0.716 0.672-0.125 0.13-0.253 0.254-0.376 0.372-0.759 0.732-1.328 1.28 0.031 2.176 0.653 0.431 1.176 0.787 1.698 1.142 0.57 0.388 1.138 0.775 1.873 1.257 0.187 0.123 0.366 0.25 0.54 0.374 0.663 0.473 1.258 0.897 1.994 0.829 0.428-0.039 0.869-0.441 1.093-1.64 0.53-2.834 1.572-8.973 1.813-11.503 0.021-0.222-0.005-0.505-0.027-0.63s-0.066-0.302-0.228-0.433c-0.192-0.156-0.488-0.188-0.62-0.186-0.602 0.011-1.525 0.332-5.968 2.18z"></path>
</symbol>
<symbol id="icon-tg_hov" viewBox="0 0 32 32">
<path fill="#2AABEE" style="fill: var(--color9, #2AABEE)" d="M16 32c8.837 0 16-7.163 16-16s-7.163-16-16-16c-8.837 0-16 7.163-16 16s7.163 16 16 16z"></path>
<path fill="#fff" style="fill: var(--color7, #fff)" d="M7.243 15.831c4.664-2.032 7.775-3.372 9.331-4.019 4.443-1.848 5.367-2.169 5.968-2.18 0.132-0.002 0.428 0.030 0.62 0.186 0.162 0.131 0.206 0.309 0.228 0.433s0.048 0.408 0.027 0.63c-0.241 2.53-1.283 8.67-1.813 11.503-0.224 1.199-0.666 1.601-1.093 1.64-0.929 0.086-1.635-0.614-2.535-1.204-1.408-0.923-2.204-1.498-3.571-2.399-1.58-1.041-0.556-1.613 0.345-2.548 0.236-0.245 4.329-3.968 4.409-4.306 0.010-0.042 0.019-0.2-0.074-0.283s-0.232-0.055-0.331-0.032c-0.141 0.032-2.391 1.519-6.749 4.461-0.639 0.439-1.217 0.652-1.735 0.641-0.571-0.012-1.67-0.323-2.487-0.589-1.002-0.326-1.798-0.498-1.729-1.051 0.036-0.288 0.433-0.583 1.19-0.884z"></path>
</symbol>
<symbol id="icon-logo_form" viewBox="0 0 39 32">
<path fill="#f5f6fa" style="fill: var(--color10, #f5f6fa)" opacity="0.3" d="M35.621 16c0 8.837-7.249 16-16.19 16s-16.19-7.163-16.19-16c0-8.837 7.249-16 16.19-16s16.19 7.163 16.19 16z"></path>
<path fill="#f5f6fa" style="fill: var(--color10, #f5f6fa)" d="M30.506 22.827c-0.368 0.071-7.496 1.347-11.078-3.289-2.847 3.654-7.894 3.769-11.022 3.303-9.099-2.502-8.398-12.015-8.392-12.107 0.010-0.141 0.062-0.275 0.149-0.385s0.204-0.191 0.337-0.231c0.132-0.041 0.273-0.041 0.405-0.001s0.25 0.12 0.338 0.228c0.021 0.028 2.284 2.828 5.206 2.935 1.625 0.071 3.21-0.764 4.636-2.332 1.727-1.402 5.752-2.47 8.343 0.879 0.882-1.148 2.147-1.925 3.554-2.183 1.7-0.193 3.409 0.273 4.789 1.304 1.426 1.568 3.012 2.403 4.636 2.332 2.922-0.106 5.185-2.906 5.206-2.935 0.089-0.107 0.206-0.185 0.338-0.224s0.272-0.038 0.403 0.004c0.131 0.042 0.247 0.122 0.334 0.23s0.14 0.24 0.154 0.38c0.007 0.092 0.708 9.605-8.336 12.093z"></path>
</symbol>
<symbol id="icon-tg_footer" viewBox="0 0 32 32">
<path d="M28.622 3.654c-4.011 1.661-21.206 8.784-25.958 10.725-3.187 1.243-1.321 2.409-1.321 2.409s2.72 0.933 5.052 1.632c2.332 0.7 3.575-0.078 3.575-0.078l10.958-7.383c3.886-2.642 2.953-0.466 2.021 0.466-2.021 2.021-5.363 5.207-8.16 7.772-1.244 1.088-0.622 2.021-0.078 2.487 2.021 1.71 7.539 5.207 7.85 5.44 1.642 1.162 4.871 2.835 5.363-0.7l1.943-12.202c0.622-4.119 1.244-7.927 1.321-9.015 0.233-2.642-2.565-1.554-2.565-1.554z"></path>
</symbol>
<symbol id="icon-tik_footer" viewBox="0 0 28 32">
<path  d="M27.054 7.029c-3.359 0-6.091-2.733-6.091-6.092 0-0.518-0.42-0.938-0.938-0.938h-5.021c-0.518 0-0.938 0.42-0.938 0.938v20.585c0 1.975-1.607 3.581-3.581 3.581s-3.581-1.607-3.581-3.581c0-1.975 1.607-3.581 3.581-3.581 0.518 0 0.938-0.42 0.938-0.938v-5.021c0-0.518-0.42-0.938-0.938-0.938-5.777 0-10.477 4.7-10.477 10.477s4.7 10.477 10.477 10.477c5.777 0 10.477-4.7 10.477-10.477v-9.112c1.866 0.995 3.942 1.514 6.092 1.514 0.518 0 0.938-0.42 0.938-0.938v-5.021c-0-0.518-0.42-0.938-0.938-0.938z"></path>
</symbol>
<symbol id="icon-youtube_footer" viewBox="0 0 43 32">
<path  d="M41.004 3.565c-1.54-1.831-4.384-2.578-9.814-2.578h-19.713c-5.555 0-8.447 0.795-9.981 2.744-1.496 1.9-1.496 4.701-1.496 8.576v7.387c0 7.508 1.775 11.32 11.477 11.32h19.713c4.709 0 7.319-0.659 9.007-2.275 1.731-1.657 2.47-4.362 2.47-9.045v-7.387c0-4.087-0.116-6.904-1.663-8.743zM27.392 17.020l-8.951 4.678c-0.2 0.105-0.419 0.156-0.637 0.156-0.247 0-0.494-0.067-0.713-0.199-0.412-0.25-0.663-0.696-0.663-1.177v-9.327c0-0.481 0.251-0.927 0.662-1.176s0.922-0.267 1.349-0.045l8.951 4.648c0.455 0.236 0.741 0.707 0.742 1.22s-0.284 0.984-0.739 1.222z"></path>
</symbol>
<symbol id="icon-arrow" viewBox="0 0 30 32">
<path fill="#fafafa" style="fill: var(--color1, #fafafa)" d="M30.118 3.027v25.412c0 0.624-0.248 1.222-0.689 1.664s-1.040 0.689-1.664 0.689-1.223-0.248-1.664-0.689c-0.441-0.441-0.689-1.040-0.689-1.664v-19.731l-21.395 21.395c-0.441 0.441-1.040 0.689-1.664 0.689s-1.223-0.248-1.664-0.689c-0.441-0.441-0.689-1.040-0.689-1.664s0.248-1.223 0.689-1.664l21.395-21.395h-19.731c-0.624 0-1.222-0.248-1.664-0.689s-0.689-1.040-0.689-1.664c0-0.624 0.248-1.223 0.689-1.664s1.040-0.689 1.664-0.689h25.412c0.624 0 1.223 0.248 1.664 0.689s0.689 1.040 0.689 1.664z"></path>
</symbol>
<symbol id="icon-close" viewBox="0 0 32 32">
<path fill="#b5bbe1" style="fill: var(--color1, #b5bbe1)" d="M24 8c-0.25-0.25-0.589-0.39-0.943-0.39s-0.693 0.14-0.943 0.39l-6.115 6.115-6.115-6.115c-0.25-0.25-0.589-0.39-0.943-0.39s-0.693 0.14-0.943 0.39c-0.25 0.25-0.39 0.589-0.39 0.943s0.14 0.693 0.39 0.943l6.115 6.115-6.115 6.115c-0.25 0.25-0.39 0.589-0.39 0.943s0.14 0.693 0.39 0.943c0.25 0.25 0.589 0.39 0.943 0.39s0.693-0.14 0.943-0.39l6.115-6.115 6.115 6.115c0.25 0.25 0.589 0.39 0.943 0.39s0.693-0.14 0.943-0.39 0.39-0.589 0.39-0.943c0-0.353-0.14-0.693-0.39-0.943l-6.115-6.115 6.115-6.115c0.25-0.25 0.39-0.589 0.39-0.943s-0.14-0.693-0.39-0.943z"></path>
</symbol>
<symbol id="icon-logo_dark" viewBox="0 0 37 32">
<path fill="#082859" style="fill: var(--color1, #082859)" opacity="0.2" d="M34.341 16c0 8.52-6.989 15.426-15.61 15.426s-15.61-6.907-15.61-15.426c0-8.52 6.989-15.426 15.61-15.426s15.61 6.907 15.61 15.426z"></path>
<path fill="#082859" style="fill: var(--color1, #082859)" d="M29.412 22.582c-0.355 0.068-7.227 1.298-10.68-3.171-2.745 3.523-7.611 3.634-10.627 3.185-8.773-2.412-8.097-11.584-8.091-11.673 0.010-0.136 0.060-0.265 0.144-0.372s0.197-0.184 0.325-0.223c0.127-0.040 0.263-0.040 0.39-0.001s0.241 0.115 0.326 0.22c0.020 0.027 2.202 2.727 5.019 2.829 1.567 0.068 3.095-0.737 4.47-2.248 1.665-1.352 5.546-2.381 8.044 0.847 0.851-1.107 2.070-1.856 3.426-2.105 1.639-0.186 3.287 0.263 4.617 1.257 1.375 1.511 2.904 2.317 4.47 2.248 2.817-0.103 4.999-2.802 5.019-2.829 0.085-0.103 0.199-0.178 0.326-0.216s0.262-0.036 0.388 0.004c0.126 0.040 0.238 0.117 0.322 0.222s0.135 0.232 0.149 0.366c0.007 0.089 0.683 9.26-8.037 11.659z"></path>
</symbol>
<symbol id="icon-back" viewBox="0 0 32 32">
<path fill="#082859" style="fill: var(--color1, #082859)" d="M14.609 16.472c-0.062-0.062-0.111-0.135-0.145-0.217s-0.051-0.168-0.051-0.255 0.017-0.175 0.051-0.255c0.034-0.081 0.083-0.155 0.145-0.217l6.115-6.113c0.375-0.375 0.586-0.884 0.586-1.414s-0.21-1.039-0.585-1.414c-0.375-0.375-0.884-0.586-1.414-0.586s-1.039 0.21-1.415 0.585l-6.115 6.115c-0.874 0.876-1.364 2.063-1.364 3.3s0.491 2.424 1.364 3.3l6.115 6.115c0.375 0.375 0.884 0.586 1.415 0.585s1.039-0.211 1.414-0.586c0.375-0.375 0.586-0.884 0.585-1.415s-0.211-1.039-0.586-1.414l-6.115-6.113z"></path>
</symbol>
<symbol id="icon-star" viewBox="0 0 32 32">
<path d="M28.666 18.825l-4.644-2.825 4.644-2.825c0.483-0.289 0.904-0.672 1.237-1.126s0.574-0.969 0.706-1.517c0.132-0.547 0.154-1.116 0.065-1.672s-0.289-1.088-0.587-1.567-0.688-0.892-1.147-1.218c-0.459-0.326-0.979-0.557-1.529-0.68s-1.118-0.135-1.672-0.036c-0.554 0.099-1.083 0.308-1.556 0.614l-4.184 2.679v-4.653c0-1.061-0.421-2.078-1.172-2.828s-1.768-1.172-2.828-1.172c-1.061 0-2.078 0.421-2.828 1.172s-1.172 1.768-1.172 2.828v4.784l-4.184-2.809c-0.954-0.572-2.095-0.745-3.176-0.484s-2.016 0.937-2.604 1.881c-0.588 0.944-0.781 2.082-0.539 3.167s0.902 2.032 1.836 2.636l4.644 2.825-4.644 2.825c-0.934 0.604-1.593 1.551-1.836 2.636s-0.049 2.223 0.539 3.167 1.523 1.62 2.604 1.881c1.081 0.261 2.222 0.087 3.176-0.484l4.184-2.717v4.692c0 1.061 0.421 2.078 1.172 2.828s1.768 1.172 2.828 1.172c1.061 0 2.078-0.421 2.828-1.172s1.172-1.768 1.172-2.828v-4.773l4.184 2.8c0.954 0.572 2.095 0.745 3.176 0.484s2.016-0.937 2.604-1.881 0.781-2.082 0.539-3.167c-0.243-1.085-0.902-2.032-1.836-2.636v-0.001z"></path>
</symbol>
<symbol id="icon-close_modal" viewBox="0 0 32 32">
<path fill="#082859" style="fill: var(--color5, #082859)" d="M17.885 15.999l13.724-13.724c0.243-0.251 0.377-0.588 0.374-0.938s-0.143-0.684-0.39-0.931-0.582-0.387-0.931-0.39c-0.35-0.003-0.686 0.131-0.938 0.374l-13.724 13.724-13.724-13.724c-0.251-0.243-0.588-0.377-0.938-0.374s-0.684 0.143-0.931 0.39c-0.247 0.247-0.387 0.582-0.39 0.931s0.131 0.686 0.374 0.938l13.724 13.724-13.724 13.724c-0.25 0.25-0.39 0.589-0.39 0.943s0.14 0.693 0.39 0.943c0.25 0.25 0.589 0.39 0.943 0.39s0.693-0.14 0.943-0.39l13.724-13.724 13.724 13.724c0.25 0.25 0.589 0.39 0.943 0.39s0.693-0.14 0.943-0.39c0.25-0.25 0.39-0.589 0.39-0.943s-0.14-0.693-0.39-0.943l-13.724-13.724z"></path>
</symbol>
<symbol id="icon-crypto" viewBox="0 0 32 32">
<path d="M17.414 9.194c-0.781-0.781-2.047-0.781-2.828 0l-2.998 2.998c-0.781 0.781-2.047 0.781-2.829-0l-0.562-0.562c-0.781-0.781-0.781-2.047 0-2.828l6.388-6.388c0.781-0.781 2.047-0.781 2.829-0l6.39 6.39c0.781 0.781 0.781 2.047 0 2.828l-0.562 0.562c-0.781 0.781-2.047 0.781-2.828 0l-3-3zM5.804 14.024c-0.781-0.781-2.047-0.781-2.829 0l-0.562 0.562c-0.781 0.781-0.781 2.047 0 2.828l0.561 0.561c0.781 0.781 2.047 0.781 2.828-0l0.562-0.562c0.781-0.781 0.781-2.047 0-2.828l-0.561-0.561zM17.414 22.806c-0.781 0.781-2.047 0.781-2.828 0l-3-3c-0.78-0.78-2.045-0.781-2.826-0.002l-1.976 1.97c-0.003 0.003-0.003 0.007 0 0.010l7.802 7.802c0.781 0.781 2.047 0.781 2.828 0l7.805-7.804c0.001-0.001 0.001-0.003 0-0.004l-1.976-1.974c-0.781-0.78-2.047-0.78-2.828 0.001l-3.001 3.001zM29.024 14.026c-0.781-0.781-2.047-0.781-2.828 0l-0.562 0.562c-0.781 0.781-0.781 2.047 0 2.829l0.561 0.561c0.781 0.781 2.047 0.781 2.828 0l0.562-0.562c0.781-0.781 0.781-2.047 0-2.828l-0.561-0.562zM19.439 15.997c0 0 0 0-0 0s-0 0-0 0l0.002 0.001c0 0 0 0.001 0 0.001l-0.001 0.001-2.026 2.026c-0.781 0.781-2.047 0.781-2.829-0l-2.023-2.023c-0.003-0.003-0.002-0.007 0-0.009l2.429-2.429c0.556-0.556 1.459-0.556 2.015 0l2.432 2.432z"></path>
</symbol>
<symbol id="icon-crypto_hov" viewBox="0 0 32 32">
<path fill="#fafafa" style="fill: var(--color8, #fafafa)" d="M17.414 9.194c-0.781-0.781-2.047-0.781-2.828 0l-2.998 2.998c-0.781 0.781-2.047 0.781-2.829-0l-0.562-0.562c-0.781-0.781-0.781-2.047 0-2.828l6.388-6.388c0.781-0.781 2.047-0.781 2.829-0l6.39 6.39c0.781 0.781 0.781 2.047 0 2.828l-0.562 0.562c-0.781 0.781-2.047 0.781-2.828 0l-3-3zM5.804 14.024c-0.781-0.781-2.047-0.781-2.829 0l-0.562 0.562c-0.781 0.781-0.781 2.047 0 2.828l0.561 0.561c0.781 0.781 2.047 0.781 2.828-0l0.562-0.562c0.781-0.781 0.781-2.047 0-2.828l-0.561-0.561zM17.414 22.806c-0.781 0.781-2.047 0.781-2.828 0l-3-3c-0.78-0.78-2.045-0.781-2.826-0.002l-1.976 1.97c-0.003 0.003-0.003 0.007 0 0.010l7.802 7.802c0.781 0.781 2.047 0.781 2.828 0l7.805-7.804c0.001-0.001 0.001-0.003 0-0.004l-1.976-1.974c-0.781-0.78-2.047-0.78-2.828 0.001l-3.001 3.001zM29.024 14.026c-0.781-0.781-2.047-0.781-2.828 0l-0.562 0.562c-0.781 0.781-0.781 2.047 0 2.829l0.561 0.561c0.781 0.781 2.047 0.781 2.828 0l0.562-0.562c0.781-0.781 0.781-2.047 0-2.828l-0.561-0.562zM19.439 15.997c0 0 0 0-0 0s-0 0-0 0l0.002 0.001c0 0 0 0.001 0 0.001l-0.001 0.001-2.026 2.026c-0.781 0.781-2.047 0.781-2.829-0l-2.023-2.023c-0.003-0.003-0.002-0.007 0-0.009l2.429-2.429c0.556-0.556 1.459-0.556 2.015 0l2.432 2.432z"></path>
</symbol>
<symbol id="icon-remote" viewBox="0 0 32 32">
<path fill="#082859" style="fill: var(--color4, #082859)" d="M29.067 7.439l-9.333-6.299c-1.101-0.749-2.402-1.149-3.733-1.149s-2.632 0.4-3.733 1.149l-9.333 6.299c-0.904 0.611-1.644 1.434-2.155 2.398s-0.779 2.038-0.778 3.129v12.368c0.002 1.767 0.705 3.462 1.955 4.712s2.944 1.953 4.712 1.955h18.667c1.767-0.002 3.462-0.705 4.712-1.955s1.953-2.944 1.955-4.712v-12.368c0.001-1.091-0.267-2.165-0.778-3.129s-1.252-1.787-2.155-2.398zM29.333 25.333c0 1.061-0.421 2.078-1.171 2.828s-1.768 1.172-2.828 1.172h-18.667c-1.061 0-2.078-0.421-2.828-1.172s-1.172-1.768-1.172-2.828v-12.368c-0-0.655 0.161-1.3 0.468-1.878s0.752-1.072 1.295-1.438l9.333-6.299c0.66-0.448 1.439-0.688 2.237-0.688s1.577 0.24 2.237 0.688l9.333 6.299c0.543 0.366 0.987 0.86 1.295 1.438s0.468 1.223 0.468 1.878v12.368zM16 9.341c-1.584-0-3.132 0.47-4.448 1.35s-2.342 2.132-2.947 3.595c-0.605 1.464-0.761 3.074-0.45 4.627s1.076 2.978 2.198 4.096l2.432 2.379c0.862 0.835 2.014 1.301 3.214 1.301s2.352-0.467 3.214-1.301l2.444-2.389c1.119-1.119 1.881-2.544 2.19-4.096s0.15-3.161-0.455-4.623c-0.605-1.462-1.631-2.712-2.947-3.591s-2.863-1.348-4.445-1.348zM19.781 21.103l-2.433 2.38c-0.362 0.35-0.845 0.546-1.349 0.546s-0.987-0.196-1.349-0.546l-2.423-2.369c-0.745-0.745-1.253-1.695-1.459-2.729s-0.101-2.106 0.302-3.080c0.403-0.974 1.085-1.807 1.961-2.394s1.906-0.9 2.96-0.902 2.085 0.309 2.963 0.894c0.878 0.584 1.562 1.415 1.968 2.388s0.514 2.044 0.311 3.079c-0.203 1.034-0.708 1.986-1.451 2.733zM17.333 17.333c0 0.264-0.078 0.521-0.225 0.741s-0.355 0.39-0.598 0.491c-0.244 0.101-0.512 0.127-0.77 0.076s-0.496-0.178-0.683-0.365c-0.187-0.186-0.313-0.424-0.365-0.683s-0.025-0.527 0.076-0.77c0.101-0.244 0.272-0.452 0.491-0.598s0.477-0.225 0.741-0.225c0.354 0 0.693 0.141 0.943 0.391s0.39 0.589 0.39 0.943z"></path>
</symbol>
<symbol id="icon-remote_hov" viewBox="0 0 32 32">
<path fill="#fafafa" style="fill: var(--color8, #fafafa)" d="M16 12c-1.055-0-2.087 0.312-2.964 0.898s-1.561 1.419-1.965 2.394-0.509 2.047-0.303 3.082c0.206 1.035 0.714 1.985 1.46 2.731l3.049 2.981c0.194 0.187 0.453 0.291 0.722 0.291s0.528-0.105 0.722-0.291l3.067-2.992c0.744-0.747 1.249-1.698 1.452-2.733s0.096-2.106-0.31-3.079c-0.405-0.973-1.090-1.804-1.968-2.389s-1.909-0.895-2.963-0.894zM16 18.656c-0.264 0-0.521-0.078-0.741-0.225s-0.39-0.355-0.491-0.598c-0.101-0.244-0.127-0.512-0.076-0.77s0.178-0.496 0.365-0.683 0.424-0.314 0.683-0.365c0.259-0.052 0.527-0.025 0.77 0.076s0.452 0.272 0.598 0.491c0.146 0.219 0.225 0.477 0.225 0.741 0 0.354-0.14 0.693-0.39 0.943s-0.589 0.39-0.943 0.39zM29.067 7.439l-9.333-6.299c-1.101-0.749-2.402-1.149-3.733-1.149s-2.632 0.4-3.733 1.149l-9.333 6.299c-0.904 0.611-1.644 1.434-2.155 2.398s-0.779 2.038-0.778 3.129v12.368c0.002 1.767 0.705 3.462 1.955 4.712s2.944 1.953 4.712 1.955h18.667c1.767-0.002 3.462-0.705 4.712-1.955s1.953-2.944 1.955-4.712v-12.368c0.001-1.091-0.267-2.165-0.778-3.129s-1.252-1.787-2.155-2.398zM21.657 22.991l-3.071 3.009c-0.694 0.671-1.621 1.046-2.587 1.046s-1.893-0.375-2.587-1.047l-3.067-2.993c-1.502-1.499-2.346-3.533-2.348-5.655s0.839-4.157 2.338-5.659c1.499-1.502 3.533-2.346 5.655-2.348s4.157 0.839 5.659 2.338c1.497 1.501 2.338 3.533 2.339 5.653s-0.837 4.153-2.333 5.655z"></path>
</symbol>
<symbol id="icon-video" viewBox="0 0 29 32">
<path fill="#082859" style="fill: var(--color4, #082859)" d="M26.4 11.843c3.2 1.848 3.2 6.466 0 8.314l-19.2 11.085c-3.2 1.848-7.2-0.462-7.2-4.157v-22.17c0-3.695 4-6.004 7.2-4.157l19.2 11.085z"></path>
</symbol>
</defs>
</svg>
