<svg width="16" height="17" viewBox="0 0 16 17" fill="none" xmlns="http://www.w3.org/2000/svg">
<path id="Vector" d="M16 1.60791V15.1079C16 15.4394 15.8683 15.7573 15.6339 15.9918C15.3995 16.2262 15.0815 16.3579 14.75 16.3579C14.4185 16.3579 14.1005 16.2262 13.8661 15.9918C13.6317 15.7573 13.5 15.4394 13.5 15.1079V4.62565L2.1339 15.9918C1.89948 16.2262 1.58153 16.3579 1.25001 16.3579C0.918485 16.3579 0.600541 16.2262 0.366119 15.9918C0.131697 15.7574 0 15.4394 0 15.1079C0 14.7764 0.131697 14.4584 0.366119 14.224L11.7323 2.85791H1.25002C0.918504 2.85791 0.600562 2.72621 0.366142 2.49179C0.131722 2.25737 2.57345e-05 1.93943 2.57345e-05 1.60791C2.57345e-05 1.27639 0.131722 0.958446 0.366142 0.724026C0.600562 0.489606 0.918504 0.35791 1.25002 0.35791L14.75 0.35791C15.0815 0.35791 15.3995 0.489606 15.6339 0.724026C15.8683 0.958446 16 1.27639 16 1.60791Z" fill="#FAFAFA"/>
</svg>
