<svg width="24" height="24" viewBox="0 0 24 24" fill="none" xmlns="http://www.w3.org/2000/svg">
<g id="fi-br-angle-small-left">
<path id="Vector" d="M13.0431 12.354C13.0896 12.3076 13.1266 12.2524 13.1518 12.1916C13.177 12.1309 13.19 12.0658 13.19 12C13.19 11.9342 13.177 11.8691 13.1518 11.8084C13.1266 11.7476 13.0896 11.6925 13.0431 11.646L8.45708 7.061C8.17569 6.77974 8.01755 6.39822 8.01746 6.00036C8.01736 5.6025 8.17532 5.2209 8.45658 4.9395C8.73784 4.65811 9.11937 4.49997 9.51723 4.49988C9.91508 4.49978 10.2967 4.65774 10.5781 4.939L15.1641 9.525C15.8193 10.182 16.1873 11.0721 16.1873 12C16.1873 12.9279 15.8193 13.818 15.1641 14.475L10.5781 19.061C10.2967 19.3423 9.91508 19.5002 9.51723 19.5001C9.11937 19.5 8.73784 19.3419 8.45658 19.0605C8.17532 18.7791 8.01736 18.3975 8.01746 17.9997C8.01755 17.6018 8.17569 17.2203 8.45708 16.939L13.0431 12.354Z" fill="#1DF990"/>
</g>
</svg>
