<svg width="49" height="41" viewBox="0 0 49 41" fill="none" xmlns="http://www.w3.org/2000/svg">
<g id="Group 64">
<g id="Group 57">
<path id="Ellipse 1194" d="M44.4003 20.2647C44.4003 30.9551 35.6295 39.6294 24.8003 39.6294C13.971 39.6294 5.20029 30.9551 5.20029 20.2647C5.20029 9.57432 13.971 0.9 24.8003 0.9C35.6295 0.9 44.4003 9.57432 44.4003 20.2647Z" stroke="url(#paint0_linear_2001_1375)" stroke-width="0.8"/>
<path id="Vector" d="M38.4838 28.698C38.0294 28.7856 29.2239 30.3617 24.7997 24.6352C21.2825 29.1495 15.0479 29.2912 11.1842 28.7156C-0.0562747 25.6246 0.809697 13.8739 0.818271 13.76C0.83116 13.586 0.895418 13.42 1.00257 13.284C1.10972 13.148 1.25472 13.0484 1.41845 12.9983C1.5814 12.9476 1.75536 12.9472 1.91854 12.997C2.08173 13.0469 2.22689 13.1448 2.33587 13.2785C2.36159 13.3135 5.15671 16.7722 8.76636 16.9035C10.7737 16.9908 12.732 15.9596 14.4938 14.0229C16.6275 12.2906 21.599 10.9718 24.7997 15.1085C25.8897 13.6903 27.452 12.7305 29.1896 12.4116C31.2896 12.1736 33.4006 12.7485 35.1057 14.0228C36.8677 15.9593 38.8259 16.991 40.8331 16.9035C44.4427 16.7722 47.2378 13.3135 47.2636 13.2785C47.3732 13.1466 47.5183 13.0505 47.6809 13.0023C47.8436 12.954 48.0165 12.9556 48.1783 13.0069C48.34 13.0582 48.4834 13.157 48.5906 13.2909C48.6978 13.4248 48.7641 13.588 48.7812 13.7601C48.7897 13.8739 49.6557 25.6246 38.4838 28.698Z" fill="url(#paint1_linear_2001_1375)"/>
</g>
</g>
<defs>
<linearGradient id="paint0_linear_2001_1375" x1="4.80029" y1="0.5" x2="49.0383" y2="6.01119" gradientUnits="userSpaceOnUse">
<stop stop-color="#6D0953"/>
<stop offset="0.485" stop-color="#F9397A"/>
<stop offset="1" stop-color="#FFC13B"/>
</linearGradient>
<linearGradient id="paint1_linear_2001_1375" x1="0.799805" y1="12.359" x2="48.6472" y2="29.39" gradientUnits="userSpaceOnUse">
<stop stop-color="#6D0953"/>
<stop offset="0.485" stop-color="#F9397A"/>
<stop offset="1" stop-color="#FFC13B"/>
</linearGradient>
</defs>
</svg>
