<svg width="48" height="41" viewBox="0 0 48 41" fill="none" xmlns="http://www.w3.org/2000/svg">
<g id="Group 64">
<g id="Group 57">
<ellipse id="Ellipse 1194" cx="24.0005" cy="20.2647" rx="20" ry="19.7647" fill="#F5F5F5" fill-opacity="0.2"/>
<g id="Vector">
<path d="M37.684 28.6979C37.2296 28.7855 28.4241 30.3616 23.9999 24.6351C20.4827 29.1494 14.248 29.2911 10.3844 28.7154C-0.856079 25.6245 0.00989277 13.8738 0.0184668 13.7599C0.0313554 13.5859 0.0956132 13.4199 0.202762 13.2839C0.309911 13.1479 0.454916 13.0483 0.618646 12.9981C0.781597 12.9475 0.955552 12.9471 1.11874 12.9969C1.28192 13.0468 1.42709 13.1446 1.53606 13.2783C1.56178 13.3134 4.3569 16.772 7.96655 16.9034C9.97385 16.9906 11.9322 15.9595 13.694 14.0228C15.8277 12.2904 20.7992 10.9717 23.9999 15.1084C25.0899 13.6902 26.6522 12.7304 28.3898 12.4115C30.4897 12.1735 32.6007 12.7484 34.3058 14.0226C36.0679 15.9592 38.0261 16.9908 40.0333 16.9034C43.6429 16.7721 46.438 13.3134 46.4638 13.2784C46.5733 13.1465 46.7185 13.0504 46.8811 13.0021C47.0438 12.9539 47.2167 12.9555 47.3784 13.0068C47.5402 13.0581 47.6836 13.1569 47.7908 13.2908C47.898 13.4247 47.9643 13.5879 47.9814 13.7599C47.9899 13.8738 48.8559 25.6245 37.684 28.6979Z" fill="#F5F5F5"/>
<path d="M37.684 28.6979C37.2296 28.7855 28.4241 30.3616 23.9999 24.6351C20.4827 29.1494 14.248 29.2911 10.3844 28.7154C-0.856079 25.6245 0.00989277 13.8738 0.0184668 13.7599C0.0313554 13.5859 0.0956132 13.4199 0.202762 13.2839C0.309911 13.1479 0.454916 13.0483 0.618646 12.9981C0.781597 12.9475 0.955552 12.9471 1.11874 12.9969C1.28192 13.0468 1.42709 13.1446 1.53606 13.2783C1.56178 13.3134 4.3569 16.772 7.96655 16.9034C9.97385 16.9906 11.9322 15.9595 13.694 14.0228C15.8277 12.2904 20.7992 10.9717 23.9999 15.1084C25.0899 13.6902 26.6522 12.7304 28.3898 12.4115C30.4897 12.1735 32.6007 12.7484 34.3058 14.0226C36.0679 15.9592 38.0261 16.9908 40.0333 16.9034C43.6429 16.7721 46.438 13.3134 46.4638 13.2784C46.5733 13.1465 46.7185 13.0504 46.8811 13.0021C47.0438 12.9539 47.2167 12.9555 47.3784 13.0068C47.5402 13.0581 47.6836 13.1569 47.7908 13.2908C47.898 13.4247 47.9643 13.5879 47.9814 13.7599C47.9899 13.8738 48.8559 25.6245 37.684 28.6979Z" fill="#F5F5F5"/>
</g>
</g>
</g>
</svg>
