<svg width="81" height="68" viewBox="0 0 81 68" fill="none" xmlns="http://www.w3.org/2000/svg">
<g id="Group 59">
<g id="Group 57">
<ellipse id="Ellipse 1194" cx="40.5001" cy="33.9999" rx="33.75" ry="33.3529" fill="#99ABFF" fill-opacity="0.2"/>
<g id="Vector">
<path d="M63.5917 48.2308C62.8249 48.3786 47.9656 51.0382 40.4998 41.3747C34.5645 48.9926 24.0436 49.2318 17.5237 48.2604C-1.44463 43.0444 0.0166941 23.215 0.0311627 23.0229C0.0529122 22.7292 0.161347 22.4491 0.342161 22.2196C0.522975 21.9901 0.767671 21.822 1.04396 21.7374C1.31894 21.652 1.61249 21.6513 1.88787 21.7354C2.16325 21.8195 2.40821 21.9847 2.59211 22.2103C2.63551 22.2694 7.35228 28.1059 13.4436 28.3275C16.8309 28.4748 20.1356 26.7347 23.1086 23.4666C26.7092 20.5432 35.0987 18.3178 40.4998 25.2985C42.3393 22.9052 44.9756 21.2856 47.9078 20.7475C51.4515 20.3459 55.0138 21.316 57.8911 23.4663C60.8646 26.7342 64.169 28.4751 67.5561 28.3276C73.6474 28.1059 78.3642 22.2694 78.4076 22.2103C78.5925 21.9878 78.8375 21.8257 79.1119 21.7442C79.3863 21.6627 79.6782 21.6654 79.9511 21.752C80.2241 21.8387 80.466 22.0053 80.6469 22.2313C80.8278 22.4573 80.9397 22.7326 80.9685 23.023C80.983 23.215 82.4443 43.0444 63.5917 48.2308Z" fill="#F7F7F7"/>
<path d="M63.5917 48.2308C62.8249 48.3786 47.9656 51.0382 40.4998 41.3747C34.5645 48.9926 24.0436 49.2318 17.5237 48.2604C-1.44463 43.0444 0.0166941 23.215 0.0311627 23.0229C0.0529122 22.7292 0.161347 22.4491 0.342161 22.2196C0.522975 21.9901 0.767671 21.822 1.04396 21.7374C1.31894 21.652 1.61249 21.6513 1.88787 21.7354C2.16325 21.8195 2.40821 21.9847 2.59211 22.2103C2.63551 22.2694 7.35228 28.1059 13.4436 28.3275C16.8309 28.4748 20.1356 26.7347 23.1086 23.4666C26.7092 20.5432 35.0987 18.3178 40.4998 25.2985C42.3393 22.9052 44.9756 21.2856 47.9078 20.7475C51.4515 20.3459 55.0138 21.316 57.8911 23.4663C60.8646 26.7342 64.169 28.4751 67.5561 28.3276C73.6474 28.1059 78.3642 22.2694 78.4076 22.2103C78.5925 21.9878 78.8375 21.8257 79.1119 21.7442C79.3863 21.6627 79.6782 21.6654 79.9511 21.752C80.2241 21.8387 80.466 22.0053 80.6469 22.2313C80.8278 22.4573 80.9397 22.7326 80.9685 23.023C80.983 23.215 82.4443 43.0444 63.5917 48.2308Z" fill="url(#paint0_linear_24_1352)" fill-opacity="0.8"/>
</g>
</g>
</g>
<defs>
<linearGradient id="paint0_linear_24_1352" x1="0" y1="20.6587" x2="79.0367" y2="53.4126" gradientUnits="userSpaceOnUse">
<stop stop-color="#1A75FF"/>
<stop offset="1" stop-color="#1DF990"/>
</linearGradient>
</defs>
</svg>
