<svg width="49" height="41" viewBox="0 0 49 41" fill="none" xmlns="http://www.w3.org/2000/svg">
<g id="Group 64">
<g id="Group 57">
<ellipse id="Ellipse 1194" cx="24.6006" cy="20.2647" rx="20" ry="19.7647" fill="white" fill-opacity="0.6"/>
<path id="Vector" d="M38.2841 28.698C37.8297 28.7856 29.0242 30.3617 24.6 24.6352C21.0828 29.1495 14.8481 29.2912 10.9845 28.7156C-0.255982 25.6246 0.60999 13.8739 0.618564 13.76C0.631453 13.586 0.695711 13.42 0.80286 13.284C0.910009 13.148 1.05501 13.0484 1.21874 12.9983C1.38169 12.9476 1.55565 12.9472 1.71884 12.997C1.88202 13.0469 2.02719 13.1448 2.13616 13.2785C2.16188 13.3135 4.957 16.7722 8.56665 16.9035C10.574 16.9908 12.5323 15.9596 14.2941 14.0229C16.4278 12.2906 21.3993 10.9718 24.6 15.1085C25.69 13.6903 27.2523 12.7305 28.9899 12.4116C31.0898 12.1736 33.2008 12.7485 34.9059 14.0228C36.668 15.9593 38.6262 16.991 40.6334 16.9035C44.243 16.7722 47.0381 13.3135 47.0639 13.2785C47.1734 13.1466 47.3186 13.0505 47.4812 13.0023C47.6439 12.954 47.8168 12.9556 47.9785 13.0069C48.1403 13.0582 48.2837 13.157 48.3909 13.2909C48.4981 13.4248 48.5644 13.588 48.5815 13.7601C48.59 13.8739 49.456 25.6246 38.2841 28.698Z" fill="url(#paint0_linear_2001_690)"/>
</g>
</g>
<defs>
<linearGradient id="paint0_linear_2001_690" x1="0.600098" y1="12.359" x2="48.4475" y2="29.39" gradientUnits="userSpaceOnUse">
<stop stop-color="#543BEE"/>
<stop offset="1" stop-color="#953BEE"/>
</linearGradient>
</defs>
</svg>
