<svg width="49" height="41" viewBox="0 0 49 41" fill="none" xmlns="http://www.w3.org/2000/svg">
<g id="Group 64">
<g id="Group 57">
<ellipse id="Ellipse 1194" cx="24.4005" cy="20.2647" rx="20" ry="19.7647" fill="#BBC3FF" fill-opacity="0.8"/>
<path id="Vector" d="M38.084 28.698C37.6296 28.7856 28.8241 30.3617 24.3999 24.6352C20.8827 29.1495 14.6481 29.2912 10.7844 28.7156C-0.456055 25.6246 0.409917 13.8739 0.418491 13.76C0.43138 13.586 0.495638 13.42 0.602787 13.284C0.709936 13.148 0.854941 13.0484 1.01867 12.9983C1.18162 12.9476 1.35558 12.9472 1.51876 12.997C1.68195 13.0469 1.82711 13.1448 1.93609 13.2785C1.96181 13.3135 4.75693 16.7722 8.36658 16.9035C10.3739 16.9908 12.3322 15.9596 14.094 14.0229C16.2277 12.2906 21.1993 10.9718 24.3999 15.1085C25.49 13.6903 27.0522 12.7305 28.7898 12.4116C30.8898 12.1736 33.0008 12.7485 34.7059 14.0228C36.468 15.9593 38.4261 16.991 40.4333 16.9035C44.0429 16.7722 46.8381 13.3135 46.8638 13.2785C46.9734 13.1466 47.1185 13.0505 47.2811 13.0023C47.4438 12.954 47.6167 12.9556 47.7785 13.0069C47.9402 13.0582 48.0836 13.157 48.1908 13.2909C48.298 13.4248 48.3643 13.588 48.3814 13.7601C48.39 13.8739 49.2559 25.6246 38.084 28.698Z" fill="#5671FF"/>
</g>
</g>
</svg>
